<svg xmlns="http://www.w3.org/2000/svg" xmlns:xlink="http://www.w3.org/1999/xlink" xmlns:serif="http://www.serif.com/" width="100%" height="100%" viewBox="0 0 116 24" version="1.1" xml:space="preserve" style="fill-rule:evenodd;clip-rule:evenodd;stroke-linejoin:round;stroke-miterlimit:1.41421;"><g><path d="M14.629,8.582c3.345,3.345 3.345,8.776 0,12.12c-3.345,3.345 -8.776,3.345 -12.12,0c-3.345,-3.344 -3.345,-8.775 0,-12.12c3.344,-3.345 8.775,-3.345 12.12,0Zm0.385,-0.856c-0.208,-0.195 -0.329,-0.466 -0.334,-0.752c-0.005,-0.285 0.106,-0.561 0.308,-0.763c0,0 0,0 0,0l4.872,-5.654c0.689,-0.688 1.729,-0.767 2.418,-0.078l0.454,0.454c0.689,0.689 0.61,1.729 -0.078,2.418l-5.654,4.872c0,0 0,0 0,0c-0.202,0.202 -0.478,0.314 -0.764,0.309c-0.286,-0.005 -0.557,-0.126 -0.752,-0.335c-0.068,-0.074 -0.138,-0.147 -0.208,-0.218c-0.015,-0.015 -0.029,-0.029 -0.044,-0.044c-0.071,-0.07 -0.144,-0.14 -0.218,-0.209Zm6.798,-6.327c0.281,0.28 0.281,0.736 0,1.017c-0.28,0.28 -0.736,0.28 -1.017,0c-0.28,-0.281 -0.28,-0.737 0,-1.017c0.281,-0.281 0.737,-0.281 1.017,0Z" style="fill:#fec309;"/><g><path d="M3.441,13.291c0.027,-0.022 0.055,-0.037 0.084,-0.043c0.03,-0.006 0.058,-0.009 0.085,-0.009l0.462,0c0.037,0 0.069,0.007 0.095,0.02c0.027,0.013 0.049,0.031 0.068,0.054c0.018,0.022 0.033,0.048 0.044,0.076c0.011,0.029 0.022,0.058 0.032,0.089l0.065,0.27c0.03,-0.064 0.074,-0.129 0.131,-0.196c0.058,-0.068 0.13,-0.129 0.218,-0.184c0.088,-0.055 0.193,-0.101 0.314,-0.137c0.122,-0.035 0.264,-0.053 0.427,-0.053c0.129,0 0.246,0.013 0.351,0.038c0.105,0.026 0.201,0.063 0.288,0.113c0.087,0.05 0.166,0.112 0.238,0.184c0.071,0.073 0.139,0.156 0.202,0.25c0.039,-0.063 0.096,-0.13 0.173,-0.199c0.077,-0.07 0.168,-0.133 0.274,-0.19c0.107,-0.057 0.225,-0.104 0.356,-0.141c0.13,-0.037 0.269,-0.055 0.416,-0.055c0.233,0 0.436,0.045 0.61,0.135c0.174,0.089 0.318,0.212 0.434,0.367c0.115,0.155 0.201,0.337 0.259,0.544c0.057,0.207 0.085,0.429 0.085,0.663l0,2.007c0,0.078 -0.016,0.137 -0.05,0.176c-0.034,0.04 -0.088,0.06 -0.161,0.06l-0.708,0c-0.088,0 -0.148,-0.015 -0.181,-0.044c-0.032,-0.03 -0.049,-0.088 -0.049,-0.173l0,-2.026c0,-0.087 -0.013,-0.169 -0.041,-0.245c-0.028,-0.075 -0.066,-0.141 -0.115,-0.197c-0.049,-0.056 -0.109,-0.1 -0.179,-0.132c-0.071,-0.032 -0.149,-0.048 -0.235,-0.048c-0.077,0 -0.151,0.016 -0.22,0.046c-0.07,0.031 -0.131,0.073 -0.184,0.128c-0.053,0.054 -0.095,0.119 -0.127,0.196c-0.032,0.076 -0.048,0.161 -0.048,0.252l0,2.007c0,0.078 -0.016,0.137 -0.05,0.176c-0.034,0.04 -0.087,0.06 -0.161,0.06l-0.064,0l-0.025,0l-0.619,0c-0.088,0 -0.148,-0.015 -0.181,-0.044c-0.032,-0.03 -0.049,-0.088 -0.049,-0.173l0,-2.026c0,-0.087 -0.012,-0.169 -0.038,-0.245c-0.025,-0.075 -0.062,-0.141 -0.11,-0.197c-0.048,-0.056 -0.106,-0.1 -0.175,-0.132c-0.068,-0.032 -0.145,-0.048 -0.231,-0.048c-0.074,0 -0.146,0.015 -0.216,0.045c-0.071,0.03 -0.134,0.071 -0.19,0.126c-0.056,0.054 -0.103,0.118 -0.141,0.194c-0.038,0.076 -0.06,0.159 -0.066,0.251l0,2.022c0,0.035 -0.007,0.07 -0.02,0.105c-0.013,0.034 -0.033,0.061 -0.06,0.079c-0.026,0.017 -0.051,0.028 -0.075,0.034c-0.023,0.006 -0.05,0.009 -0.081,0.009l-0.692,0c-0.088,0 -0.151,-0.021 -0.19,-0.064c-0.039,-0.043 -0.058,-0.1 -0.058,-0.172l0,-3.428c0,-0.039 0.008,-0.075 0.026,-0.107c0.017,-0.033 0.041,-0.059 0.072,-0.077l-0.019,0.009Z" style="fill:#fff;fill-rule:nonzero;"/><path d="M10.825,16.894c-0.018,0.039 -0.033,0.073 -0.046,0.103c-0.012,0.03 -0.026,0.054 -0.041,0.073c-0.015,0.02 -0.034,0.035 -0.057,0.045c-0.022,0.01 -0.053,0.015 -0.092,0.015l-0.606,0c-0.164,0 -0.245,-0.078 -0.245,-0.236l0,-4.577c0,-0.035 0.006,-0.067 0.019,-0.095c0.014,-0.029 0.031,-0.053 0.053,-0.074c0.021,-0.02 0.046,-0.036 0.073,-0.047c0.028,-0.011 0.055,-0.017 0.081,-0.017l0.696,0c0.077,0 0.139,0.022 0.184,0.067c0.045,0.045 0.067,0.1 0.067,0.166l0,1.274c0.057,-0.061 0.119,-0.117 0.184,-0.168c0.065,-0.051 0.136,-0.095 0.213,-0.13c0.076,-0.036 0.161,-0.064 0.253,-0.085c0.092,-0.02 0.194,-0.03 0.306,-0.03c0.278,0 0.534,0.051 0.767,0.154c0.234,0.104 0.436,0.246 0.604,0.426c0.169,0.181 0.3,0.394 0.395,0.638c0.095,0.244 0.143,0.508 0.143,0.792c0,0.282 -0.048,0.545 -0.143,0.79c-0.095,0.245 -0.226,0.458 -0.395,0.639c-0.168,0.181 -0.37,0.323 -0.604,0.427c-0.233,0.105 -0.489,0.157 -0.767,0.157c-0.104,0 -0.204,-0.014 -0.299,-0.04c-0.095,-0.027 -0.184,-0.061 -0.268,-0.104c-0.084,-0.043 -0.161,-0.092 -0.231,-0.146c-0.071,-0.054 -0.133,-0.109 -0.189,-0.164l-0.055,0.147Zm1.848,-1.706c0,-0.131 -0.021,-0.256 -0.063,-0.374c-0.042,-0.119 -0.102,-0.223 -0.179,-0.313c-0.078,-0.089 -0.171,-0.16 -0.279,-0.213c-0.108,-0.052 -0.23,-0.078 -0.365,-0.078c-0.134,0 -0.261,0.026 -0.378,0.078c-0.118,0.053 -0.219,0.124 -0.305,0.213c-0.086,0.09 -0.154,0.194 -0.204,0.313c-0.05,0.118 -0.075,0.243 -0.075,0.374l0,0.043c0.006,0.128 0.035,0.249 0.088,0.361c0.052,0.112 0.121,0.21 0.206,0.293c0.086,0.082 0.186,0.147 0.301,0.194c0.114,0.047 0.237,0.071 0.367,0.071c0.135,0 0.257,-0.025 0.365,-0.075c0.108,-0.05 0.201,-0.118 0.279,-0.204c0.077,-0.086 0.137,-0.187 0.179,-0.305c0.042,-0.117 0.063,-0.243 0.063,-0.378Z" style="fill:#fff;fill-rule:nonzero;"/></g><g><path d="M20.417,18.07c0,-0.13 0.02,-0.254 0.059,-0.374c0.039,-0.12 0.097,-0.225 0.172,-0.317c0.076,-0.091 0.168,-0.164 0.278,-0.219c0.109,-0.054 0.234,-0.081 0.373,-0.081l0.022,0c0.042,0 0.075,0.012 0.098,0.038c0.023,0.025 0.035,0.06 0.035,0.103l0,0.301c0,0.042 -0.011,0.077 -0.034,0.107c-0.022,0.029 -0.053,0.043 -0.092,0.043c-0.022,0 -0.05,0.006 -0.083,0.016c-0.033,0.011 -0.065,0.028 -0.096,0.052c-0.03,0.023 -0.057,0.053 -0.078,0.089c-0.022,0.036 -0.033,0.079 -0.033,0.128l0,0.353l0.316,0c0.042,0 0.075,0.011 0.098,0.033c0.023,0.022 0.035,0.058 0.035,0.109l0,0.268c0,0.051 -0.012,0.089 -0.035,0.114c-0.023,0.026 -0.056,0.038 -0.098,0.038l-0.316,0l0,1.815c0,0.046 -0.015,0.081 -0.046,0.105c-0.03,0.024 -0.064,0.036 -0.1,0.036l-0.338,0c-0.043,0 -0.077,-0.013 -0.101,-0.04c-0.024,-0.027 -0.036,-0.061 -0.036,-0.101l0,-1.815l-0.215,0c-0.043,0 -0.077,-0.012 -0.103,-0.038c-0.026,-0.025 -0.039,-0.063 -0.039,-0.114l0,-0.268c0,-0.051 0.013,-0.087 0.039,-0.109c0.026,-0.022 0.06,-0.033 0.103,-0.033l0.215,0l0,-0.239Z" style="fill:#fec309;fill-rule:nonzero;"/><path d="M21.781,19.449c0,-0.133 0.017,-0.26 0.051,-0.383c0.034,-0.122 0.082,-0.237 0.145,-0.343c0.062,-0.106 0.137,-0.202 0.224,-0.288c0.087,-0.087 0.184,-0.161 0.29,-0.223c0.106,-0.061 0.22,-0.109 0.341,-0.143c0.121,-0.035 0.248,-0.052 0.38,-0.052c0.131,0 0.257,0.017 0.379,0.052c0.122,0.034 0.236,0.082 0.341,0.143c0.105,0.062 0.201,0.136 0.288,0.223c0.088,0.086 0.162,0.182 0.225,0.288c0.062,0.106 0.111,0.221 0.145,0.343c0.034,0.123 0.051,0.25 0.051,0.383c0,0.132 -0.017,0.259 -0.051,0.381c-0.034,0.122 -0.083,0.235 -0.145,0.341c-0.063,0.105 -0.137,0.201 -0.225,0.288c-0.087,0.087 -0.183,0.162 -0.288,0.224c-0.105,0.061 -0.219,0.109 -0.341,0.143c-0.122,0.034 -0.248,0.051 -0.379,0.051c-0.132,0 -0.259,-0.017 -0.38,-0.051c-0.121,-0.034 -0.235,-0.082 -0.341,-0.143c-0.106,-0.062 -0.203,-0.137 -0.29,-0.224c-0.087,-0.087 -0.162,-0.183 -0.224,-0.288c-0.063,-0.106 -0.111,-0.219 -0.145,-0.341c-0.034,-0.122 -0.051,-0.249 -0.051,-0.381Zm0.614,0c0,0.116 0.02,0.226 0.061,0.33c0.041,0.103 0.097,0.194 0.17,0.271c0.073,0.077 0.159,0.138 0.258,0.183c0.1,0.045 0.208,0.067 0.326,0.067c0.114,0 0.221,-0.022 0.319,-0.067c0.098,-0.045 0.182,-0.106 0.254,-0.183c0.071,-0.077 0.126,-0.168 0.166,-0.271c0.04,-0.104 0.06,-0.214 0.06,-0.33c0,-0.115 -0.02,-0.225 -0.06,-0.329c-0.04,-0.105 -0.095,-0.197 -0.166,-0.276c-0.072,-0.079 -0.156,-0.142 -0.254,-0.189c-0.098,-0.048 -0.205,-0.071 -0.319,-0.071c-0.118,0 -0.226,0.023 -0.326,0.071c-0.099,0.047 -0.185,0.11 -0.258,0.189c-0.073,0.079 -0.129,0.171 -0.17,0.276c-0.041,0.104 -0.061,0.214 -0.061,0.329Z" style="fill:#fec309;fill-rule:nonzero;"/><path d="M25.037,19.449c0,-0.133 0.017,-0.26 0.051,-0.383c0.035,-0.122 0.083,-0.237 0.145,-0.343c0.063,-0.106 0.138,-0.202 0.225,-0.288c0.087,-0.087 0.183,-0.161 0.289,-0.223c0.106,-0.061 0.22,-0.109 0.341,-0.143c0.122,-0.035 0.248,-0.052 0.38,-0.052c0.131,0 0.257,0.017 0.379,0.052c0.122,0.034 0.236,0.082 0.341,0.143c0.106,0.062 0.202,0.136 0.289,0.223c0.087,0.086 0.162,0.182 0.224,0.288c0.063,0.106 0.111,0.221 0.145,0.343c0.034,0.123 0.051,0.25 0.051,0.383c0,0.132 -0.017,0.259 -0.051,0.381c-0.034,0.122 -0.082,0.235 -0.145,0.341c-0.062,0.105 -0.137,0.201 -0.224,0.288c-0.087,0.087 -0.183,0.162 -0.289,0.224c-0.105,0.061 -0.219,0.109 -0.341,0.143c-0.122,0.034 -0.248,0.051 -0.379,0.051c-0.132,0 -0.258,-0.017 -0.38,-0.051c-0.121,-0.034 -0.235,-0.082 -0.341,-0.143c-0.106,-0.062 -0.202,-0.137 -0.289,-0.224c-0.087,-0.087 -0.162,-0.183 -0.225,-0.288c-0.062,-0.106 -0.11,-0.219 -0.145,-0.341c-0.034,-0.122 -0.051,-0.249 -0.051,-0.381Zm0.615,0c0,0.116 0.02,0.226 0.061,0.33c0.04,0.103 0.097,0.194 0.169,0.271c0.073,0.077 0.159,0.138 0.259,0.183c0.099,0.045 0.208,0.067 0.325,0.067c0.115,0 0.221,-0.022 0.319,-0.067c0.098,-0.045 0.183,-0.106 0.254,-0.183c0.071,-0.077 0.127,-0.168 0.167,-0.271c0.04,-0.104 0.06,-0.214 0.06,-0.33c0,-0.115 -0.02,-0.225 -0.06,-0.329c-0.04,-0.105 -0.096,-0.197 -0.167,-0.276c-0.071,-0.079 -0.156,-0.142 -0.254,-0.189c-0.098,-0.048 -0.204,-0.071 -0.319,-0.071c-0.117,0 -0.226,0.023 -0.325,0.071c-0.1,0.047 -0.186,0.11 -0.259,0.189c-0.072,0.079 -0.129,0.171 -0.169,0.276c-0.041,0.104 -0.061,0.214 -0.061,0.329Z" style="fill:#fec309;fill-rule:nonzero;"/><path d="M30.533,20.512c-0.051,0.05 -0.107,0.098 -0.169,0.143c-0.062,0.045 -0.128,0.084 -0.198,0.117c-0.07,0.032 -0.145,0.058 -0.224,0.077c-0.08,0.019 -0.162,0.028 -0.248,0.028c-0.196,0 -0.378,-0.037 -0.547,-0.112c-0.17,-0.075 -0.317,-0.177 -0.443,-0.306c-0.125,-0.129 -0.224,-0.28 -0.295,-0.454c-0.071,-0.173 -0.107,-0.359 -0.107,-0.556c0,-0.199 0.036,-0.386 0.107,-0.559c0.071,-0.174 0.17,-0.325 0.295,-0.454c0.126,-0.13 0.273,-0.232 0.443,-0.306c0.169,-0.075 0.351,-0.113 0.547,-0.113c0.178,0 0.334,0.032 0.469,0.095c0.135,0.063 0.255,0.149 0.359,0.258l0,-1c0,-0.037 0.012,-0.068 0.035,-0.093c0.023,-0.025 0.057,-0.037 0.1,-0.037l0.357,0c0.034,0 0.065,0.012 0.094,0.036c0.029,0.024 0.044,0.055 0.044,0.094l0,3.327c0,0.087 -0.047,0.13 -0.14,0.13l-0.327,0c-0.043,0 -0.073,-0.011 -0.089,-0.032c-0.016,-0.022 -0.03,-0.055 -0.043,-0.098l-0.02,-0.185Zm-1.618,-1.063c0,0.116 0.02,0.226 0.061,0.33c0.04,0.103 0.097,0.194 0.169,0.271c0.073,0.077 0.158,0.138 0.256,0.183c0.098,0.045 0.206,0.067 0.322,0.067c0.114,0 0.223,-0.022 0.324,-0.066c0.102,-0.045 0.19,-0.105 0.266,-0.181c0.076,-0.076 0.135,-0.165 0.18,-0.266c0.044,-0.101 0.068,-0.209 0.07,-0.323l0,-0.015c0,-0.115 -0.021,-0.225 -0.065,-0.329c-0.043,-0.105 -0.103,-0.197 -0.178,-0.276c-0.076,-0.079 -0.165,-0.142 -0.267,-0.189c-0.103,-0.048 -0.213,-0.071 -0.33,-0.071c-0.116,0 -0.224,0.023 -0.322,0.071c-0.098,0.047 -0.183,0.11 -0.256,0.189c-0.072,0.079 -0.129,0.171 -0.169,0.276c-0.041,0.104 -0.061,0.214 -0.061,0.329Z" style="fill:#fec309;fill-rule:nonzero;"/><path d="M33.4,20.048c0.03,0.047 0.069,0.089 0.115,0.124c0.046,0.035 0.094,0.063 0.143,0.086c0.048,0.022 0.095,0.039 0.139,0.049c0.044,0.01 0.08,0.015 0.106,0.015c0.04,0 0.088,-0.004 0.144,-0.013c0.055,-0.009 0.107,-0.024 0.155,-0.047c0.049,-0.022 0.09,-0.053 0.124,-0.091c0.035,-0.039 0.052,-0.088 0.052,-0.147c0,-0.059 -0.014,-0.106 -0.041,-0.142c-0.027,-0.036 -0.063,-0.066 -0.109,-0.09c-0.045,-0.024 -0.098,-0.044 -0.156,-0.06c-0.059,-0.016 -0.121,-0.034 -0.187,-0.053c-0.152,-0.04 -0.282,-0.089 -0.39,-0.147c-0.107,-0.057 -0.195,-0.123 -0.264,-0.197c-0.069,-0.074 -0.12,-0.155 -0.152,-0.244c-0.032,-0.088 -0.048,-0.185 -0.048,-0.289c0,-0.118 0.024,-0.225 0.07,-0.323c0.047,-0.097 0.112,-0.181 0.196,-0.25c0.084,-0.07 0.186,-0.124 0.304,-0.163c0.118,-0.038 0.249,-0.057 0.393,-0.057c0.102,0 0.193,0.009 0.273,0.027c0.079,0.018 0.153,0.045 0.222,0.082c0.068,0.036 0.132,0.082 0.192,0.137c0.061,0.055 0.122,0.12 0.185,0.194c0.021,0.026 0.032,0.051 0.032,0.076c0,0.026 -0.014,0.051 -0.043,0.074c-0.022,0.017 -0.048,0.039 -0.078,0.065c-0.029,0.026 -0.059,0.052 -0.088,0.077c-0.029,0.024 -0.057,0.045 -0.083,0.063c-0.026,0.017 -0.048,0.026 -0.065,0.026c-0.032,0 -0.063,-0.019 -0.094,-0.057c-0.032,-0.037 -0.064,-0.071 -0.096,-0.099c-0.031,-0.028 -0.065,-0.051 -0.1,-0.07c-0.035,-0.018 -0.072,-0.031 -0.113,-0.041c-0.041,-0.009 -0.085,-0.014 -0.133,-0.014c-0.039,0 -0.08,0.006 -0.123,0.017c-0.043,0.012 -0.082,0.029 -0.118,0.053c-0.035,0.023 -0.065,0.051 -0.089,0.083c-0.024,0.033 -0.036,0.07 -0.036,0.11c0,0.047 0.015,0.087 0.045,0.119c0.03,0.033 0.067,0.061 0.113,0.085c0.046,0.024 0.096,0.044 0.149,0.06c0.054,0.016 0.104,0.031 0.151,0.044c0.133,0.037 0.256,0.081 0.368,0.13c0.112,0.05 0.208,0.11 0.288,0.18c0.081,0.07 0.144,0.153 0.189,0.248c0.045,0.095 0.067,0.207 0.067,0.335c0,0.135 -0.027,0.256 -0.08,0.362c-0.054,0.107 -0.128,0.198 -0.224,0.272c-0.095,0.074 -0.207,0.13 -0.337,0.169c-0.13,0.04 -0.271,0.059 -0.424,0.059c-0.091,0 -0.184,-0.01 -0.279,-0.029c-0.094,-0.02 -0.184,-0.05 -0.271,-0.092c-0.086,-0.041 -0.166,-0.094 -0.239,-0.159c-0.074,-0.064 -0.135,-0.141 -0.185,-0.229c-0.021,-0.037 -0.032,-0.069 -0.032,-0.098c0,-0.019 0.004,-0.036 0.014,-0.049c0.009,-0.014 0.022,-0.028 0.038,-0.041l0.244,-0.187c0.022,-0.013 0.041,-0.02 0.059,-0.02c0.02,0 0.038,0.007 0.054,0.021c0.016,0.014 0.034,0.032 0.053,0.056Z" style="fill:#fec309;fill-rule:nonzero;"/><path d="M37.758,20.522c-0.128,0.109 -0.267,0.195 -0.419,0.257c-0.152,0.063 -0.318,0.094 -0.5,0.094c-0.196,0 -0.382,-0.037 -0.558,-0.111c-0.175,-0.074 -0.329,-0.176 -0.461,-0.305c-0.133,-0.129 -0.237,-0.281 -0.315,-0.454c-0.078,-0.174 -0.117,-0.361 -0.117,-0.561c0,-0.129 0.016,-0.254 0.048,-0.375c0.032,-0.12 0.078,-0.233 0.136,-0.338c0.059,-0.106 0.131,-0.202 0.215,-0.29c0.084,-0.088 0.178,-0.163 0.282,-0.226c0.104,-0.062 0.216,-0.11 0.338,-0.144c0.121,-0.035 0.249,-0.052 0.384,-0.052c0.11,0 0.219,0.014 0.327,0.041c0.107,0.027 0.209,0.065 0.306,0.114c0.096,0.049 0.187,0.109 0.271,0.18c0.084,0.07 0.158,0.15 0.222,0.238c0.087,0.122 0.151,0.254 0.192,0.395c0.041,0.14 0.061,0.297 0.061,0.468c0,0.042 -0.002,0.077 -0.006,0.106c-0.003,0.028 -0.012,0.051 -0.027,0.068c-0.014,0.018 -0.036,0.03 -0.065,0.038c-0.029,0.008 -0.07,0.012 -0.122,0.012l-1.932,0c0.019,0.105 0.055,0.197 0.108,0.278c0.053,0.081 0.115,0.149 0.188,0.205c0.073,0.056 0.152,0.098 0.237,0.126c0.086,0.028 0.172,0.043 0.258,0.043c0.065,0 0.128,-0.007 0.188,-0.02c0.06,-0.013 0.116,-0.031 0.169,-0.052c0.052,-0.022 0.1,-0.047 0.145,-0.075c0.044,-0.029 0.083,-0.058 0.116,-0.089c0,-0.001 0.001,-0.002 0.002,-0.002c0.018,-0.016 0.034,-0.029 0.05,-0.038c0.016,-0.009 0.033,-0.014 0.051,-0.014c0.013,0 0.027,0.004 0.044,0.013c0.017,0.009 0.033,0.023 0.049,0.043c0.039,0.048 0.073,0.088 0.1,0.12c0.028,0.032 0.05,0.059 0.068,0.081c0.017,0.022 0.03,0.041 0.038,0.056c0.008,0.016 0.012,0.032 0.012,0.048c0,0.041 -0.028,0.082 -0.083,0.122Zm-0.967,-1.964c-0.086,0 -0.169,0.015 -0.25,0.046c-0.082,0.032 -0.156,0.074 -0.224,0.128c-0.067,0.054 -0.126,0.117 -0.176,0.189c-0.05,0.073 -0.087,0.151 -0.11,0.236l1.542,0c-0.023,-0.089 -0.058,-0.17 -0.106,-0.243c-0.047,-0.074 -0.104,-0.137 -0.171,-0.19c-0.066,-0.053 -0.143,-0.094 -0.228,-0.123c-0.086,-0.029 -0.178,-0.043 -0.277,-0.043Z" style="fill:#fec309;fill-rule:nonzero;"/><path d="M38.684,18.19c0,-0.043 0.014,-0.075 0.042,-0.096c0.029,-0.022 0.06,-0.033 0.093,-0.033l0.277,0c0.036,0 0.064,0.011 0.082,0.033c0.019,0.021 0.034,0.048 0.044,0.08c0.01,0.032 0.017,0.067 0.022,0.104c0.004,0.037 0.009,0.071 0.015,0.101c0.032,-0.045 0.068,-0.089 0.108,-0.132c0.04,-0.043 0.085,-0.081 0.136,-0.114c0.051,-0.034 0.108,-0.06 0.172,-0.081c0.064,-0.02 0.137,-0.03 0.218,-0.03c0.073,0 0.138,0.004 0.196,0.014c0.058,0.009 0.114,0.024 0.167,0.044c0.053,0.019 0.105,0.045 0.155,0.076c0.051,0.031 0.106,0.068 0.164,0.11c0.024,0.016 0.046,0.034 0.064,0.054c0.018,0.021 0.027,0.044 0.027,0.072c-0.001,0.012 -0.003,0.024 -0.006,0.037c-0.003,0.013 -0.009,0.026 -0.018,0.039l-0.178,0.283c-0.012,0.015 -0.025,0.026 -0.041,0.032c-0.015,0.007 -0.028,0.01 -0.04,0.01c-0.023,0 -0.046,-0.006 -0.068,-0.018c-0.047,-0.026 -0.091,-0.05 -0.13,-0.074c-0.039,-0.023 -0.078,-0.043 -0.116,-0.06c-0.037,-0.016 -0.076,-0.029 -0.116,-0.039c-0.04,-0.009 -0.085,-0.014 -0.134,-0.014c-0.129,0 -0.239,0.042 -0.328,0.124c-0.089,0.083 -0.149,0.197 -0.18,0.342l0,1.643c0,0.087 -0.045,0.13 -0.135,0.13l-0.357,0c-0.09,0 -0.135,-0.043 -0.135,-0.13l0,-2.507Z" style="fill:#fec309;fill-rule:nonzero;"/><path d="M40.827,18.237c0,0 0,-0.002 -0.002,-0.008c-0.001,-0.006 -0.003,-0.013 -0.005,-0.022c-0.002,-0.009 -0.004,-0.018 -0.006,-0.028c-0.001,-0.011 -0.002,-0.019 -0.002,-0.027c0,-0.027 0.01,-0.049 0.03,-0.066c0.019,-0.017 0.049,-0.025 0.088,-0.025l0.392,0c0.035,0 0.063,0.009 0.085,0.026c0.022,0.018 0.039,0.042 0.052,0.074l0.039,0.098c0.029,0.083 0.062,0.176 0.099,0.279c0.037,0.103 0.076,0.209 0.115,0.319c0.039,0.11 0.078,0.219 0.117,0.327c0.04,0.108 0.077,0.21 0.111,0.305c0.035,0.095 0.067,0.179 0.094,0.253c0.028,0.073 0.05,0.129 0.065,0.168c0.025,-0.071 0.054,-0.153 0.087,-0.245c0.032,-0.092 0.067,-0.19 0.105,-0.294c0.038,-0.104 0.076,-0.211 0.116,-0.321c0.039,-0.11 0.077,-0.219 0.115,-0.325c0.038,-0.106 0.074,-0.207 0.108,-0.304c0.034,-0.096 0.065,-0.184 0.092,-0.262c0.015,-0.035 0.033,-0.06 0.054,-0.075c0.021,-0.015 0.05,-0.023 0.086,-0.023l0.407,0c0.045,0 0.076,0.007 0.093,0.022c0.016,0.014 0.025,0.033 0.025,0.056c0,0.012 -0.002,0.027 -0.006,0.044c-0.003,0.017 -0.007,0.03 -0.009,0.039l-1.037,2.518c-0.012,0.021 -0.026,0.04 -0.043,0.059c-0.016,0.019 -0.047,0.028 -0.092,0.028l-0.201,0c-0.052,0 -0.087,-0.009 -0.105,-0.027c-0.019,-0.018 -0.032,-0.038 -0.041,-0.06l-1.026,-2.503Z" style="fill:#fec309;fill-rule:nonzero;"/><path d="M43.753,18.194c0,-0.038 0.011,-0.069 0.032,-0.095c0.022,-0.025 0.054,-0.038 0.096,-0.038l0.362,0c0.016,0 0.032,0.003 0.049,0.01c0.017,0.006 0.031,0.016 0.045,0.028c0.013,0.012 0.023,0.027 0.032,0.043c0.009,0.016 0.013,0.033 0.013,0.052l0,2.503c0,0.087 -0.045,0.13 -0.137,0.13l-0.362,0c-0.087,0 -0.13,-0.043 -0.13,-0.13l0,-2.503Zm0,-0.963c0,-0.087 0.043,-0.131 0.128,-0.131l0.366,0c0.041,0 0.074,0.011 0.098,0.033c0.025,0.022 0.037,0.055 0.037,0.098l0,0.325c0,0.033 -0.011,0.065 -0.035,0.094c-0.023,0.03 -0.055,0.045 -0.098,0.045l-0.366,0c-0.087,0 -0.13,-0.046 -0.13,-0.139l0,-0.325Z" style="fill:#fec309;fill-rule:nonzero;"/><path d="M46.95,20.102c0.025,-0.016 0.046,-0.026 0.063,-0.029c0.016,-0.004 0.03,-0.006 0.042,-0.006c0.025,0.002 0.046,0.015 0.063,0.039l0.052,0.072l0.155,0.22c0.007,0.01 0.013,0.021 0.018,0.032c0.004,0.011 0.006,0.021 0.006,0.029c0,0.023 -0.008,0.044 -0.024,0.062c-0.016,0.018 -0.037,0.037 -0.063,0.056c-0.124,0.09 -0.257,0.163 -0.4,0.218c-0.143,0.055 -0.3,0.082 -0.471,0.082c-0.13,0 -0.255,-0.017 -0.376,-0.051c-0.121,-0.034 -0.235,-0.082 -0.34,-0.143c-0.105,-0.062 -0.201,-0.136 -0.289,-0.223c-0.087,-0.086 -0.162,-0.182 -0.225,-0.288c-0.063,-0.106 -0.112,-0.22 -0.146,-0.342c-0.034,-0.122 -0.051,-0.249 -0.051,-0.381c0,-0.133 0.017,-0.26 0.051,-0.382c0.034,-0.122 0.083,-0.236 0.146,-0.342c0.063,-0.106 0.138,-0.202 0.225,-0.288c0.088,-0.087 0.184,-0.161 0.289,-0.222c0.105,-0.062 0.219,-0.11 0.34,-0.144c0.121,-0.034 0.246,-0.051 0.376,-0.051c0.161,0 0.313,0.024 0.457,0.074c0.144,0.049 0.272,0.116 0.383,0.2l-0.002,-0.002c0.021,0.02 0.041,0.038 0.06,0.053c0.02,0.015 0.03,0.039 0.03,0.071c0,0.009 -0.001,0.019 -0.002,0.031c0,0.011 -0.004,0.022 -0.012,0.032l-0.178,0.272c-0.029,0.044 -0.061,0.066 -0.096,0.066c-0.025,0 -0.052,-0.013 -0.083,-0.037c-0.074,-0.063 -0.16,-0.113 -0.259,-0.153c-0.099,-0.039 -0.2,-0.058 -0.305,-0.058c-0.113,0 -0.22,0.023 -0.319,0.07c-0.099,0.048 -0.187,0.111 -0.263,0.192c-0.075,0.081 -0.135,0.174 -0.178,0.281c-0.044,0.107 -0.065,0.219 -0.065,0.337c0,0.12 0.021,0.233 0.065,0.339c0.043,0.106 0.103,0.199 0.177,0.277c0.075,0.078 0.163,0.14 0.263,0.186c0.1,0.046 0.207,0.069 0.32,0.069c0.124,0 0.23,-0.022 0.32,-0.064c0.09,-0.043 0.172,-0.094 0.246,-0.154Z" style="fill:#fec309;fill-rule:nonzero;"/><path d="M50.07,20.522c-0.128,0.109 -0.268,0.195 -0.42,0.257c-0.151,0.063 -0.318,0.094 -0.5,0.094c-0.196,0 -0.381,-0.037 -0.557,-0.111c-0.176,-0.074 -0.33,-0.176 -0.462,-0.305c-0.132,-0.129 -0.237,-0.281 -0.315,-0.454c-0.077,-0.174 -0.116,-0.361 -0.116,-0.561c0,-0.129 0.016,-0.254 0.048,-0.375c0.032,-0.12 0.077,-0.233 0.136,-0.338c0.059,-0.106 0.13,-0.202 0.214,-0.29c0.085,-0.088 0.179,-0.163 0.282,-0.226c0.104,-0.062 0.217,-0.11 0.338,-0.144c0.121,-0.035 0.249,-0.052 0.385,-0.052c0.11,0 0.219,0.014 0.326,0.041c0.108,0.027 0.21,0.065 0.306,0.114c0.097,0.049 0.187,0.109 0.272,0.18c0.084,0.07 0.158,0.15 0.222,0.238c0.087,0.122 0.151,0.254 0.191,0.395c0.041,0.14 0.061,0.297 0.061,0.468c0,0.042 -0.001,0.077 -0.005,0.106c-0.004,0.028 -0.013,0.051 -0.027,0.068c-0.015,0.018 -0.037,0.03 -0.066,0.038c-0.029,0.008 -0.069,0.012 -0.122,0.012l-1.932,0c0.019,0.105 0.055,0.197 0.108,0.278c0.053,0.081 0.116,0.149 0.189,0.205c0.072,0.056 0.151,0.098 0.237,0.126c0.086,0.028 0.171,0.043 0.257,0.043c0.065,0 0.128,-0.007 0.188,-0.02c0.061,-0.013 0.117,-0.031 0.169,-0.052c0.052,-0.022 0.101,-0.047 0.145,-0.075c0.044,-0.029 0.083,-0.058 0.117,-0.089c0,-0.001 0,-0.002 0.002,-0.002c0.017,-0.016 0.034,-0.029 0.05,-0.038c0.016,-0.009 0.033,-0.014 0.05,-0.014c0.013,0 0.028,0.004 0.045,0.013c0.016,0.009 0.033,0.023 0.049,0.043c0.039,0.048 0.072,0.088 0.1,0.12c0.027,0.032 0.05,0.059 0.067,0.081c0.018,0.022 0.03,0.041 0.038,0.056c0.008,0.016 0.012,0.032 0.012,0.048c0,0.041 -0.027,0.082 -0.082,0.122Zm-0.967,-1.964c-0.086,0 -0.17,0.015 -0.251,0.046c-0.081,0.032 -0.156,0.074 -0.223,0.128c-0.068,0.054 -0.127,0.117 -0.177,0.189c-0.05,0.073 -0.086,0.151 -0.11,0.236l1.543,0c-0.024,-0.089 -0.059,-0.17 -0.106,-0.243c-0.047,-0.074 -0.104,-0.137 -0.171,-0.19c-0.067,-0.053 -0.143,-0.094 -0.229,-0.123c-0.086,-0.029 -0.178,-0.043 -0.276,-0.043Z" style="fill:#fec309;fill-rule:nonzero;"/><path d="M54.224,20.102c0.024,-0.016 0.045,-0.026 0.062,-0.029c0.016,-0.004 0.031,-0.006 0.042,-0.006c0.025,0.002 0.046,0.015 0.063,0.039l0.053,0.072l0.154,0.22c0.008,0.01 0.013,0.021 0.018,0.032c0.004,0.011 0.006,0.021 0.006,0.029c0,0.023 -0.008,0.044 -0.024,0.062c-0.016,0.018 -0.037,0.037 -0.063,0.056c-0.123,0.09 -0.257,0.163 -0.4,0.218c-0.143,0.055 -0.3,0.082 -0.471,0.082c-0.129,0 -0.255,-0.017 -0.376,-0.051c-0.121,-0.034 -0.234,-0.082 -0.34,-0.143c-0.105,-0.062 -0.201,-0.136 -0.288,-0.223c-0.088,-0.086 -0.163,-0.182 -0.226,-0.288c-0.063,-0.106 -0.112,-0.22 -0.146,-0.342c-0.034,-0.122 -0.051,-0.249 -0.051,-0.381c0,-0.133 0.017,-0.26 0.051,-0.382c0.034,-0.122 0.083,-0.236 0.146,-0.342c0.063,-0.106 0.138,-0.202 0.226,-0.288c0.087,-0.087 0.183,-0.161 0.288,-0.222c0.106,-0.062 0.219,-0.11 0.34,-0.144c0.121,-0.034 0.247,-0.051 0.376,-0.051c0.161,0 0.313,0.024 0.457,0.074c0.144,0.049 0.272,0.116 0.384,0.2l-0.003,-0.002c0.021,0.02 0.041,0.038 0.06,0.053c0.02,0.015 0.03,0.039 0.03,0.071c0,0.009 -0.001,0.019 -0.001,0.031c-0.001,0.011 -0.005,0.022 -0.012,0.032l-0.179,0.272c-0.029,0.044 -0.061,0.066 -0.096,0.066c-0.024,0 -0.052,-0.013 -0.083,-0.037c-0.074,-0.063 -0.16,-0.113 -0.259,-0.153c-0.099,-0.039 -0.2,-0.058 -0.305,-0.058c-0.113,0 -0.219,0.023 -0.319,0.07c-0.099,0.048 -0.187,0.111 -0.262,0.192c-0.076,0.081 -0.135,0.174 -0.179,0.281c-0.044,0.107 -0.065,0.219 -0.065,0.337c0,0.12 0.021,0.233 0.065,0.339c0.044,0.106 0.103,0.199 0.178,0.277c0.074,0.078 0.162,0.14 0.262,0.186c0.1,0.046 0.207,0.069 0.32,0.069c0.124,0 0.23,-0.022 0.32,-0.064c0.09,-0.043 0.173,-0.094 0.247,-0.154Z" style="fill:#fec309;fill-rule:nonzero;"/><path d="M54.979,19.449c0,-0.133 0.018,-0.26 0.052,-0.383c0.034,-0.122 0.082,-0.237 0.144,-0.343c0.063,-0.106 0.138,-0.202 0.225,-0.288c0.087,-0.087 0.184,-0.161 0.29,-0.223c0.106,-0.061 0.219,-0.109 0.34,-0.143c0.122,-0.035 0.248,-0.052 0.381,-0.052c0.13,0 0.257,0.017 0.379,0.052c0.122,0.034 0.235,0.082 0.34,0.143c0.106,0.062 0.202,0.136 0.289,0.223c0.087,0.086 0.162,0.182 0.224,0.288c0.063,0.106 0.111,0.221 0.145,0.343c0.034,0.123 0.051,0.25 0.051,0.383c0,0.132 -0.017,0.259 -0.051,0.381c-0.034,0.122 -0.082,0.235 -0.145,0.341c-0.062,0.105 -0.137,0.201 -0.224,0.288c-0.087,0.087 -0.183,0.162 -0.289,0.224c-0.105,0.061 -0.218,0.109 -0.34,0.143c-0.122,0.034 -0.249,0.051 -0.379,0.051c-0.133,0 -0.259,-0.017 -0.381,-0.051c-0.121,-0.034 -0.234,-0.082 -0.34,-0.143c-0.106,-0.062 -0.203,-0.137 -0.29,-0.224c-0.087,-0.087 -0.162,-0.183 -0.225,-0.288c-0.062,-0.106 -0.11,-0.219 -0.144,-0.341c-0.034,-0.122 -0.052,-0.249 -0.052,-0.381Zm0.615,0c0,0.116 0.02,0.226 0.061,0.33c0.04,0.103 0.097,0.194 0.17,0.271c0.072,0.077 0.158,0.138 0.258,0.183c0.099,0.045 0.208,0.067 0.325,0.067c0.115,0 0.221,-0.022 0.319,-0.067c0.099,-0.045 0.183,-0.106 0.254,-0.183c0.071,-0.077 0.127,-0.168 0.167,-0.271c0.04,-0.104 0.06,-0.214 0.06,-0.33c0,-0.115 -0.02,-0.225 -0.06,-0.329c-0.04,-0.105 -0.096,-0.197 -0.167,-0.276c-0.071,-0.079 -0.155,-0.142 -0.254,-0.189c-0.098,-0.048 -0.204,-0.071 -0.319,-0.071c-0.117,0 -0.226,0.023 -0.325,0.071c-0.1,0.047 -0.186,0.11 -0.258,0.189c-0.073,0.079 -0.13,0.171 -0.17,0.276c-0.041,0.104 -0.061,0.214 -0.061,0.329Z" style="fill:#fec309;fill-rule:nonzero;"/><path d="M58.338,18.19c0,-0.021 0.009,-0.043 0.026,-0.066c0.018,-0.023 0.035,-0.038 0.051,-0.043c0.011,-0.012 0.029,-0.018 0.052,-0.019c0.023,-0.001 0.045,-0.001 0.065,-0.001l0.22,0c0.042,0 0.073,0.014 0.094,0.041c0.02,0.028 0.034,0.058 0.041,0.092l0.024,0.231c0.034,-0.05 0.075,-0.098 0.123,-0.146c0.049,-0.048 0.107,-0.091 0.173,-0.129c0.067,-0.037 0.143,-0.068 0.229,-0.091c0.086,-0.023 0.182,-0.035 0.29,-0.035c0.171,0 0.324,0.031 0.457,0.093c0.134,0.061 0.246,0.146 0.338,0.253c0.091,0.108 0.161,0.234 0.208,0.379c0.047,0.146 0.071,0.302 0.071,0.469l0,1.453c0,0.052 -0.013,0.091 -0.037,0.117c-0.025,0.026 -0.061,0.039 -0.107,0.039l-0.331,0c-0.058,0 -0.097,-0.011 -0.117,-0.032c-0.019,-0.022 -0.029,-0.061 -0.029,-0.116l0,-1.45c0,-0.077 -0.013,-0.153 -0.039,-0.226c-0.026,-0.073 -0.065,-0.139 -0.115,-0.197c-0.05,-0.058 -0.112,-0.105 -0.186,-0.139c-0.074,-0.035 -0.16,-0.053 -0.257,-0.053c-0.067,0 -0.136,0.014 -0.208,0.041c-0.072,0.026 -0.138,0.065 -0.197,0.114c-0.06,0.049 -0.109,0.109 -0.148,0.18c-0.039,0.07 -0.06,0.15 -0.061,0.238l0,1.412c0,0.027 -0.002,0.055 -0.005,0.082c-0.002,0.028 -0.009,0.053 -0.018,0.074c-0.01,0.022 -0.023,0.04 -0.04,0.053c-0.018,0.013 -0.04,0.019 -0.068,0.019l-0.359,0c-0.048,0 -0.083,-0.011 -0.106,-0.033c-0.022,-0.023 -0.034,-0.055 -0.034,-0.097l0,-2.507Z" style="fill:#fec309;fill-rule:nonzero;"/><path d="M61.595,20.048c0.03,0.047 0.069,0.089 0.115,0.124c0.047,0.035 0.094,0.063 0.143,0.086c0.049,0.022 0.095,0.039 0.139,0.049c0.045,0.01 0.08,0.015 0.106,0.015c0.041,0 0.089,-0.004 0.144,-0.013c0.055,-0.009 0.107,-0.024 0.155,-0.047c0.049,-0.022 0.09,-0.053 0.125,-0.091c0.034,-0.039 0.051,-0.088 0.051,-0.147c0,-0.059 -0.014,-0.106 -0.04,-0.142c-0.027,-0.036 -0.064,-0.066 -0.109,-0.09c-0.046,-0.024 -0.098,-0.044 -0.157,-0.06c-0.059,-0.016 -0.121,-0.034 -0.186,-0.053c-0.153,-0.04 -0.283,-0.089 -0.39,-0.147c-0.108,-0.057 -0.196,-0.123 -0.265,-0.197c-0.069,-0.074 -0.119,-0.155 -0.151,-0.244c-0.032,-0.088 -0.048,-0.185 -0.048,-0.289c0,-0.118 0.023,-0.225 0.069,-0.323c0.047,-0.097 0.112,-0.181 0.196,-0.25c0.085,-0.07 0.186,-0.124 0.304,-0.163c0.119,-0.038 0.25,-0.057 0.393,-0.057c0.102,0 0.193,0.009 0.273,0.027c0.08,0.018 0.154,0.045 0.222,0.082c0.068,0.036 0.132,0.082 0.193,0.137c0.06,0.055 0.121,0.12 0.184,0.194c0.022,0.026 0.032,0.051 0.032,0.076c0,0.026 -0.014,0.051 -0.043,0.074c-0.022,0.017 -0.048,0.039 -0.077,0.065c-0.03,0.026 -0.06,0.052 -0.089,0.077c-0.029,0.024 -0.056,0.045 -0.082,0.063c-0.027,0.017 -0.048,0.026 -0.066,0.026c-0.032,0 -0.063,-0.019 -0.093,-0.057c-0.032,-0.037 -0.064,-0.071 -0.096,-0.099c-0.032,-0.028 -0.066,-0.051 -0.101,-0.07c-0.034,-0.018 -0.072,-0.031 -0.113,-0.041c-0.04,-0.009 -0.085,-0.014 -0.133,-0.014c-0.039,0 -0.08,0.006 -0.123,0.017c-0.043,0.012 -0.082,0.029 -0.117,0.053c-0.036,0.023 -0.066,0.051 -0.09,0.083c-0.024,0.033 -0.036,0.07 -0.036,0.11c0,0.047 0.015,0.087 0.045,0.119c0.03,0.033 0.068,0.061 0.113,0.085c0.046,0.024 0.096,0.044 0.15,0.06c0.053,0.016 0.103,0.031 0.15,0.044c0.133,0.037 0.256,0.081 0.368,0.13c0.112,0.05 0.208,0.11 0.289,0.18c0.08,0.07 0.143,0.153 0.188,0.248c0.045,0.095 0.067,0.207 0.067,0.335c0,0.135 -0.026,0.256 -0.08,0.362c-0.054,0.107 -0.128,0.198 -0.223,0.272c-0.095,0.074 -0.208,0.13 -0.338,0.169c-0.13,0.04 -0.271,0.059 -0.424,0.059c-0.091,0 -0.184,-0.01 -0.278,-0.029c-0.095,-0.02 -0.185,-0.05 -0.272,-0.092c-0.086,-0.041 -0.166,-0.094 -0.239,-0.159c-0.074,-0.064 -0.135,-0.141 -0.184,-0.229c-0.022,-0.037 -0.033,-0.069 -0.033,-0.098c0,-0.019 0.005,-0.036 0.014,-0.049c0.01,-0.014 0.022,-0.028 0.038,-0.041l0.244,-0.187c0.022,-0.013 0.042,-0.02 0.059,-0.02c0.02,0 0.039,0.007 0.054,0.021c0.016,0.014 0.034,0.032 0.053,0.056Z" style="fill:#fec309;fill-rule:nonzero;"/><path d="M66.097,20.742c0,0.016 -0.005,0.029 -0.016,0.037c-0.011,0.009 -0.024,0.015 -0.04,0.019c-0.016,0.004 -0.034,0.006 -0.053,0.006c-0.019,0.001 -0.035,0.002 -0.05,0.002l-0.22,0c-0.042,0 -0.073,-0.014 -0.093,-0.041c-0.021,-0.027 -0.035,-0.057 -0.042,-0.092l-0.024,-0.199c-0.032,0.048 -0.072,0.095 -0.12,0.139c-0.048,0.044 -0.104,0.083 -0.17,0.117c-0.065,0.035 -0.14,0.062 -0.225,0.082c-0.085,0.02 -0.181,0.031 -0.289,0.031c-0.172,0 -0.325,-0.031 -0.457,-0.093c-0.132,-0.062 -0.243,-0.146 -0.332,-0.253c-0.09,-0.106 -0.157,-0.232 -0.204,-0.378c-0.046,-0.145 -0.07,-0.301 -0.07,-0.468l0,-1.453c0,-0.052 0.013,-0.092 0.037,-0.118c0.025,-0.027 0.061,-0.041 0.107,-0.041l0.331,0c0.058,0 0.097,0.011 0.117,0.033c0.019,0.022 0.029,0.06 0.029,0.115l0,1.453c0,0.077 0.012,0.152 0.036,0.226c0.024,0.073 0.06,0.139 0.108,0.197c0.048,0.058 0.108,0.104 0.18,0.139c0.072,0.035 0.155,0.052 0.251,0.052c0.067,0 0.137,-0.011 0.209,-0.034c0.073,-0.024 0.139,-0.059 0.199,-0.107c0.059,-0.048 0.109,-0.108 0.148,-0.18c0.039,-0.072 0.059,-0.156 0.059,-0.251l0,-1.414c0,-0.026 0.001,-0.053 0.004,-0.08c0.003,-0.026 0.009,-0.051 0.018,-0.074c0.01,-0.022 0.023,-0.04 0.04,-0.054c0.016,-0.014 0.039,-0.021 0.068,-0.021l0.36,0c0.048,0 0.083,0.012 0.105,0.035c0.023,0.023 0.034,0.056 0.034,0.098l0,2.505c0,0.029 -0.012,0.051 -0.035,0.065Z" style="fill:#fec309;fill-rule:nonzero;"/><path d="M66.744,17.37c0,-0.037 0.01,-0.068 0.031,-0.093c0.02,-0.025 0.051,-0.037 0.093,-0.037l0.381,0c0.03,0 0.057,0.012 0.082,0.037c0.026,0.025 0.038,0.056 0.038,0.093l0,3.327c0,0.043 -0.012,0.076 -0.036,0.098c-0.024,0.021 -0.056,0.032 -0.097,0.032l-0.363,0c-0.047,0 -0.08,-0.011 -0.099,-0.032c-0.02,-0.022 -0.03,-0.055 -0.03,-0.098l0,-3.327Z" style="fill:#fec309;fill-rule:nonzero;"/><path d="M68.975,20.827c-0.115,-0.001 -0.223,-0.019 -0.324,-0.052c-0.101,-0.033 -0.189,-0.082 -0.263,-0.145c-0.075,-0.063 -0.134,-0.141 -0.178,-0.233c-0.043,-0.092 -0.065,-0.197 -0.065,-0.315l0,-0.359l0,-1.111l-0.251,0c-0.042,0 -0.073,-0.009 -0.094,-0.028c-0.022,-0.019 -0.032,-0.05 -0.032,-0.094l0,-0.314c0,-0.042 0.01,-0.071 0.032,-0.089c0.021,-0.017 0.052,-0.026 0.094,-0.026l0.251,0c0,-0.077 0,-0.154 0.001,-0.23c0.001,-0.076 0.001,-0.153 0.001,-0.23c0,-0.029 0.009,-0.052 0.027,-0.068c0.018,-0.017 0.046,-0.032 0.084,-0.045c0.025,-0.009 0.054,-0.019 0.089,-0.031c0.035,-0.013 0.071,-0.025 0.108,-0.036c0.037,-0.012 0.073,-0.022 0.108,-0.03c0.035,-0.008 0.064,-0.012 0.087,-0.012c0.045,0 0.075,0.013 0.088,0.037c0.014,0.025 0.021,0.058 0.021,0.098c0,0.092 0,0.183 -0.001,0.274c-0.001,0.09 -0.001,0.181 -0.001,0.273l0.314,0c0.037,0 0.066,0.01 0.087,0.029c0.02,0.02 0.03,0.051 0.03,0.093l0,0.298c0,0.047 -0.01,0.08 -0.03,0.101c-0.021,0.02 -0.05,0.03 -0.087,0.03l-0.314,0l0,0.413c0,0.05 0,0.097 0.001,0.14c0.001,0.044 0.001,0.091 0.001,0.142l0,0.414c0,0.003 0,0.006 -0.001,0.009c-0.001,0.002 -0.001,0.005 -0.001,0.008l0,0.286c0,0.095 0.019,0.164 0.056,0.207c0.038,0.042 0.099,0.063 0.183,0.063c0.031,0 0.055,0.011 0.072,0.032c0.018,0.022 0.026,0.048 0.026,0.079l0,0.303c0,0.037 -0.01,0.067 -0.031,0.088c-0.021,0.021 -0.051,0.031 -0.088,0.031Z" style="fill:#fec309;fill-rule:nonzero;"/><path d="M69.624,18.194c0,-0.038 0.011,-0.069 0.032,-0.095c0.022,-0.025 0.054,-0.038 0.096,-0.038l0.362,0c0.016,0 0.032,0.003 0.049,0.01c0.017,0.006 0.031,0.016 0.045,0.028c0.013,0.012 0.024,0.027 0.032,0.043c0.009,0.016 0.013,0.033 0.013,0.052l0,2.503c0,0.087 -0.045,0.13 -0.137,0.13l-0.362,0c-0.087,0 -0.13,-0.043 -0.13,-0.13l0,-2.503Zm0,-0.963c0,-0.087 0.043,-0.131 0.128,-0.131l0.366,0c0.041,0 0.074,0.011 0.098,0.033c0.025,0.022 0.037,0.055 0.037,0.098l0,0.325c0,0.033 -0.011,0.065 -0.035,0.094c-0.023,0.03 -0.055,0.045 -0.098,0.045l-0.366,0c-0.087,0 -0.13,-0.046 -0.13,-0.139l0,-0.325Z" style="fill:#fec309;fill-rule:nonzero;"/><path d="M70.963,18.19c0,-0.021 0.009,-0.043 0.027,-0.066c0.017,-0.023 0.034,-0.038 0.05,-0.043c0.011,-0.012 0.029,-0.018 0.052,-0.019c0.023,-0.001 0.045,-0.001 0.065,-0.001l0.22,0c0.042,0 0.074,0.014 0.094,0.041c0.02,0.028 0.034,0.058 0.041,0.092l0.024,0.231c0.034,-0.05 0.075,-0.098 0.123,-0.146c0.049,-0.048 0.107,-0.091 0.174,-0.129c0.066,-0.037 0.143,-0.068 0.228,-0.091c0.086,-0.023 0.182,-0.035 0.29,-0.035c0.171,0 0.324,0.031 0.457,0.093c0.134,0.061 0.247,0.146 0.338,0.253c0.091,0.108 0.161,0.234 0.208,0.379c0.047,0.146 0.071,0.302 0.071,0.469l0,1.453c0,0.052 -0.013,0.091 -0.037,0.117c-0.025,0.026 -0.06,0.039 -0.107,0.039l-0.331,0c-0.058,0 -0.097,-0.011 -0.117,-0.032c-0.019,-0.022 -0.029,-0.061 -0.029,-0.116l0,-1.45c0,-0.077 -0.013,-0.153 -0.039,-0.226c-0.026,-0.073 -0.064,-0.139 -0.115,-0.197c-0.05,-0.058 -0.112,-0.105 -0.186,-0.139c-0.074,-0.035 -0.16,-0.053 -0.257,-0.053c-0.067,0 -0.136,0.014 -0.208,0.041c-0.072,0.026 -0.137,0.065 -0.197,0.114c-0.06,0.049 -0.109,0.109 -0.148,0.18c-0.039,0.07 -0.06,0.15 -0.061,0.238l0,1.412c0,0.027 -0.002,0.055 -0.004,0.082c-0.003,0.028 -0.01,0.053 -0.019,0.074c-0.009,0.022 -0.023,0.04 -0.04,0.053c-0.018,0.013 -0.04,0.019 -0.068,0.019l-0.359,0c-0.048,0 -0.083,-0.011 -0.106,-0.033c-0.022,-0.023 -0.034,-0.055 -0.034,-0.097l0,-2.507Z" style="fill:#fec309;fill-rule:nonzero;"/><path d="M76.047,20.631c0.008,-0.026 0.011,-0.057 0.011,-0.092c0,-0.036 0.002,-0.069 0.005,-0.099c-0.053,0.055 -0.108,0.106 -0.167,0.154c-0.059,0.048 -0.122,0.09 -0.191,0.126c-0.068,0.035 -0.142,0.063 -0.222,0.083c-0.08,0.021 -0.166,0.031 -0.259,0.031c-0.131,0 -0.256,-0.016 -0.376,-0.048c-0.119,-0.032 -0.231,-0.078 -0.334,-0.137c-0.103,-0.06 -0.197,-0.132 -0.281,-0.216c-0.084,-0.084 -0.157,-0.178 -0.217,-0.281c-0.06,-0.103 -0.107,-0.215 -0.139,-0.335c-0.033,-0.121 -0.049,-0.247 -0.049,-0.379c0,-0.131 0.016,-0.257 0.049,-0.379c0.032,-0.122 0.079,-0.236 0.139,-0.341c0.06,-0.106 0.133,-0.202 0.217,-0.289c0.084,-0.087 0.178,-0.161 0.281,-0.223c0.103,-0.062 0.215,-0.11 0.334,-0.144c0.12,-0.034 0.245,-0.051 0.376,-0.051c0.093,0 0.18,0.01 0.263,0.029c0.082,0.02 0.159,0.048 0.23,0.084c0.072,0.036 0.139,0.079 0.202,0.129c0.062,0.049 0.12,0.103 0.172,0.161c0.006,-0.039 0.011,-0.078 0.016,-0.116c0.005,-0.037 0.01,-0.076 0.014,-0.115c0.009,-0.041 0.022,-0.072 0.039,-0.095c0.016,-0.022 0.048,-0.034 0.094,-0.034c0.048,0 0.096,0.001 0.143,0.002c0.047,0 0.095,0.001 0.143,0.001c0.033,0 0.063,0.011 0.088,0.034c0.025,0.024 0.038,0.054 0.038,0.092l0,2.222c0,0.238 -0.038,0.445 -0.115,0.619c-0.077,0.175 -0.182,0.321 -0.314,0.436c-0.132,0.116 -0.286,0.202 -0.461,0.258c-0.175,0.057 -0.36,0.085 -0.556,0.085c-0.083,0 -0.166,-0.007 -0.25,-0.02c-0.083,-0.014 -0.165,-0.034 -0.245,-0.059c-0.08,-0.026 -0.156,-0.057 -0.228,-0.094c-0.073,-0.037 -0.139,-0.079 -0.199,-0.125c-0.019,-0.012 -0.034,-0.026 -0.047,-0.043c-0.012,-0.016 -0.018,-0.037 -0.018,-0.062c0,-0.011 0.001,-0.023 0.004,-0.036c0.003,-0.012 0.01,-0.026 0.022,-0.042l0.163,-0.238c0.016,-0.018 0.031,-0.033 0.044,-0.042c0.013,-0.01 0.028,-0.014 0.044,-0.014c0.011,0.001 0.025,0.004 0.04,0.008c0.015,0.005 0.031,0.014 0.047,0.027c0.035,0.03 0.078,0.056 0.129,0.077c0.052,0.021 0.106,0.038 0.162,0.052c0.055,0.014 0.111,0.024 0.167,0.03c0.056,0.005 0.106,0.008 0.149,0.008c0.108,0 0.211,-0.013 0.309,-0.041c0.098,-0.028 0.185,-0.068 0.261,-0.12c0.076,-0.052 0.139,-0.115 0.187,-0.189c0.049,-0.074 0.078,-0.157 0.086,-0.249Zm-1.607,-1.193c0,0.116 0.02,0.226 0.061,0.33c0.041,0.103 0.097,0.195 0.17,0.273c0.072,0.078 0.158,0.141 0.256,0.186c0.098,0.046 0.205,0.069 0.321,0.069c0.115,0 0.223,-0.023 0.325,-0.068c0.101,-0.045 0.19,-0.105 0.265,-0.182c0.076,-0.076 0.136,-0.165 0.18,-0.266c0.044,-0.102 0.068,-0.209 0.071,-0.323l0,-0.035c-0.003,-0.113 -0.027,-0.22 -0.071,-0.322c-0.044,-0.102 -0.104,-0.191 -0.18,-0.268c-0.075,-0.077 -0.164,-0.138 -0.265,-0.183c-0.102,-0.045 -0.21,-0.067 -0.325,-0.067c-0.116,0 -0.223,0.022 -0.321,0.068c-0.098,0.046 -0.184,0.108 -0.256,0.186c-0.073,0.079 -0.129,0.17 -0.17,0.274c-0.041,0.104 -0.061,0.213 -0.061,0.328Z" style="fill:#fec309;fill-rule:nonzero;"/></g><g><path d="M97.227,12.398c0.01,0.003 0.031,0.005 0.062,0.005c0.101,0 0.195,-0.028 0.282,-0.083c0.086,-0.056 0.151,-0.134 0.192,-0.235c0.028,-0.021 0.048,-0.047 0.06,-0.08c0.012,-0.033 0.018,-0.064 0.018,-0.092c0.018,-0.062 0.043,-0.112 0.076,-0.148c0.033,-0.036 0.074,-0.055 0.122,-0.055c0.025,0 0.04,0.002 0.047,0.006l1.162,0.229c0.048,0 0.092,0.027 0.132,0.083c0.04,0.056 0.06,0.109 0.06,0.161c0,0.028 -0.001,0.047 -0.005,0.058c-0.045,0.271 -0.13,0.516 -0.255,0.737c-0.125,0.22 -0.278,0.409 -0.458,0.565c-0.181,0.156 -0.384,0.277 -0.61,0.364c-0.225,0.087 -0.46,0.13 -0.703,0.13c-0.111,0 -0.224,-0.01 -0.338,-0.031l-0.344,-0.062c-0.024,0.326 -0.082,0.609 -0.174,0.849c-0.092,0.239 -0.211,0.444 -0.355,0.614c-0.144,0.17 -0.309,0.308 -0.494,0.414c-0.186,0.106 -0.384,0.189 -0.594,0.248c-0.21,0.059 -0.428,0.099 -0.654,0.122c-0.225,0.023 -0.449,0.034 -0.671,0.034c-0.375,0 -0.732,-0.061 -1.071,-0.182c-0.338,-0.122 -0.635,-0.292 -0.89,-0.511c-0.255,-0.219 -0.458,-0.478 -0.607,-0.778c-0.149,-0.301 -0.224,-0.63 -0.224,-0.987c0,-0.261 0.025,-0.491 0.076,-0.69c0.05,-0.2 0.122,-0.379 0.216,-0.537c0.093,-0.158 0.205,-0.299 0.336,-0.424c0.13,-0.125 0.275,-0.243 0.435,-0.354c-0.16,-0.167 -0.291,-0.365 -0.394,-0.594c-0.102,-0.229 -0.153,-0.479 -0.153,-0.75c0,-0.299 0.061,-0.576 0.185,-0.833c0.123,-0.257 0.287,-0.48 0.492,-0.669c0.205,-0.19 0.441,-0.338 0.708,-0.446c0.267,-0.107 0.545,-0.161 0.833,-0.161c0.288,0 0.566,0.038 0.834,0.114c0.267,0.077 0.503,0.2 0.708,0.37c0.205,0.17 0.368,0.392 0.489,0.664c0.122,0.273 0.183,0.607 0.183,1.003c0,0.08 -0.024,0.14 -0.071,0.182c-0.047,0.042 -0.101,0.062 -0.164,0.062c-0.177,0 -0.355,0.001 -0.534,0.003c-0.178,0.002 -0.356,0.003 -0.533,0.003c-0.15,0 -0.224,-0.066 -0.224,-0.198c0,-0.087 -0.01,-0.166 -0.029,-0.237c-0.019,-0.071 -0.051,-0.133 -0.096,-0.185c-0.045,-0.052 -0.105,-0.093 -0.18,-0.122c-0.075,-0.03 -0.167,-0.045 -0.279,-0.045c-0.125,0 -0.226,0.022 -0.304,0.065c-0.078,0.044 -0.139,0.098 -0.183,0.162c-0.043,0.064 -0.072,0.133 -0.088,0.208c-0.016,0.075 -0.023,0.143 -0.023,0.206c0,0.035 0.009,0.088 0.028,0.161c0.019,0.073 0.05,0.149 0.094,0.227c0.043,0.078 0.101,0.15 0.174,0.216c0.073,0.066 0.164,0.109 0.271,0.13c0.122,0.021 0.182,0.09 0.182,0.208c0,0.028 -0.001,0.047 -0.005,0.058l-0.203,0.979c-0.007,0.066 -0.03,0.112 -0.07,0.138c-0.04,0.026 -0.083,0.039 -0.128,0.039c-0.028,0 -0.054,-0.002 -0.078,-0.005c-0.024,-0.004 -0.049,-0.006 -0.073,-0.006c-0.111,0 -0.202,0.03 -0.273,0.089c-0.071,0.059 -0.128,0.128 -0.169,0.208c-0.042,0.08 -0.071,0.163 -0.086,0.248c-0.016,0.085 -0.024,0.155 -0.024,0.211c0,0.104 0.015,0.217 0.044,0.341c0.03,0.123 0.083,0.238 0.159,0.343c0.077,0.106 0.182,0.195 0.315,0.266c0.134,0.071 0.303,0.107 0.508,0.107c0.136,0 0.266,-0.02 0.391,-0.06c0.125,-0.04 0.236,-0.099 0.333,-0.177c0.097,-0.078 0.176,-0.175 0.237,-0.289c0.061,-0.115 0.095,-0.248 0.102,-0.401l-0.308,-0.063c-0.048,-0.01 -0.087,-0.035 -0.117,-0.075c-0.029,-0.04 -0.044,-0.084 -0.044,-0.133c0,-0.028 0.002,-0.045 0.005,-0.052c0.035,-0.191 0.071,-0.38 0.109,-0.568c0.039,-0.187 0.077,-0.38 0.115,-0.578c0.01,-0.055 0.034,-0.099 0.07,-0.13c0.037,-0.031 0.079,-0.047 0.128,-0.047c0.024,0 0.04,0.002 0.047,0.005l2.26,0.438Z" style="fill:#434343;fill-rule:nonzero;"/><path d="M107.393,14.106c0.048,-0.035 0.094,-0.056 0.138,-0.065c0.043,-0.009 0.077,-0.013 0.101,-0.013c0.059,0 0.113,0.012 0.162,0.036c0.048,0.025 0.099,0.077 0.151,0.157l0.583,0.88c0.017,0.027 0.034,0.059 0.05,0.093c0.015,0.035 0.023,0.063 0.023,0.084c0,0.08 -0.025,0.145 -0.076,0.195c-0.05,0.05 -0.105,0.095 -0.164,0.133c-0.284,0.198 -0.596,0.357 -0.934,0.476c-0.339,0.12 -0.697,0.18 -1.076,0.18c-0.312,0 -0.613,-0.04 -0.903,-0.12c-0.29,-0.08 -0.56,-0.193 -0.81,-0.341c-0.25,-0.147 -0.479,-0.324 -0.688,-0.531c-0.208,-0.207 -0.385,-0.437 -0.531,-0.69c-0.146,-0.254 -0.259,-0.527 -0.341,-0.82c-0.082,-0.294 -0.122,-0.6 -0.122,-0.92c0,-0.319 0.04,-0.626 0.122,-0.921c0.082,-0.295 0.195,-0.569 0.341,-0.821c0.146,-0.251 0.323,-0.48 0.531,-0.687c0.209,-0.207 0.438,-0.383 0.688,-0.529c0.25,-0.145 0.52,-0.258 0.81,-0.338c0.29,-0.08 0.591,-0.12 0.903,-0.12c0.379,0 0.728,0.05 1.05,0.151c0.321,0.101 0.622,0.25 0.903,0.448l-0.015,-0.016c0.076,0.046 0.137,0.098 0.182,0.159c0.045,0.061 0.068,0.136 0.068,0.227c0,0.062 -0.021,0.126 -0.063,0.192l-0.463,0.787c-0.098,0.17 -0.216,0.255 -0.355,0.255c-0.031,0 -0.069,-0.008 -0.114,-0.023c-0.045,-0.016 -0.096,-0.043 -0.151,-0.081c-0.153,-0.101 -0.317,-0.183 -0.492,-0.248c-0.176,-0.064 -0.362,-0.096 -0.56,-0.096c-0.219,0 -0.42,0.044 -0.604,0.133c-0.184,0.088 -0.341,0.209 -0.472,0.362c-0.13,0.153 -0.231,0.33 -0.304,0.531c-0.073,0.201 -0.11,0.413 -0.11,0.635c0,0.23 0.037,0.444 0.11,0.644c0.073,0.199 0.174,0.372 0.304,0.518c0.131,0.146 0.288,0.261 0.472,0.346c0.184,0.085 0.385,0.128 0.604,0.128c0.198,0 0.383,-0.035 0.557,-0.104c0.174,-0.07 0.339,-0.158 0.495,-0.266Z" style="fill:#434343;fill-rule:nonzero;"/><path d="M109.127,12.84c0,-0.319 0.041,-0.626 0.122,-0.921c0.082,-0.295 0.197,-0.569 0.344,-0.821c0.148,-0.251 0.325,-0.48 0.531,-0.687c0.207,-0.207 0.437,-0.383 0.69,-0.529c0.254,-0.145 0.527,-0.258 0.821,-0.338c0.293,-0.08 0.599,-0.12 0.919,-0.12c0.472,0 0.916,0.088 1.33,0.263c0.415,0.175 0.776,0.417 1.084,0.724c0.307,0.307 0.55,0.668 0.729,1.083c0.179,0.415 0.268,0.864 0.268,1.346c0,0.32 -0.041,0.626 -0.122,0.92c-0.082,0.293 -0.197,0.566 -0.344,0.82c-0.148,0.253 -0.325,0.483 -0.531,0.69c-0.207,0.207 -0.437,0.384 -0.69,0.531c-0.254,0.148 -0.526,0.261 -0.815,0.341c-0.29,0.08 -0.593,0.12 -0.909,0.12c-0.32,0 -0.626,-0.04 -0.919,-0.12c-0.294,-0.08 -0.567,-0.193 -0.821,-0.341c-0.253,-0.147 -0.483,-0.324 -0.69,-0.531c-0.206,-0.207 -0.383,-0.437 -0.531,-0.69c-0.147,-0.254 -0.262,-0.527 -0.344,-0.82c-0.081,-0.294 -0.122,-0.6 -0.122,-0.92Zm1.901,0c0,0.23 0.035,0.444 0.107,0.644c0.071,0.199 0.172,0.372 0.302,0.518c0.13,0.146 0.288,0.261 0.474,0.346c0.185,0.085 0.395,0.128 0.627,0.128c0.226,0 0.43,-0.043 0.612,-0.128c0.182,-0.085 0.337,-0.2 0.464,-0.346c0.126,-0.146 0.224,-0.319 0.291,-0.518c0.068,-0.2 0.102,-0.414 0.102,-0.644c0,-0.222 -0.034,-0.434 -0.102,-0.635c-0.067,-0.201 -0.165,-0.378 -0.291,-0.531c-0.127,-0.153 -0.282,-0.274 -0.464,-0.362c-0.182,-0.089 -0.386,-0.133 -0.612,-0.133c-0.232,0 -0.442,0.044 -0.627,0.133c-0.186,0.088 -0.344,0.209 -0.474,0.362c-0.13,0.153 -0.231,0.33 -0.302,0.531c-0.072,0.201 -0.107,0.413 -0.107,0.635Z" style="fill:#434343;fill-rule:nonzero;"/></g><g><path d="M20.195,9.617c0.046,-0.038 0.093,-0.063 0.144,-0.073c0.05,-0.011 0.098,-0.016 0.143,-0.016l0.786,0c0.063,0 0.117,0.012 0.162,0.034c0.045,0.023 0.083,0.053 0.114,0.091c0.031,0.038 0.057,0.082 0.076,0.13c0.019,0.049 0.037,0.099 0.054,0.151l0.11,0.459c0.052,-0.108 0.127,-0.219 0.224,-0.334c0.097,-0.114 0.22,-0.218 0.37,-0.312c0.149,-0.094 0.327,-0.171 0.533,-0.232c0.207,-0.061 0.449,-0.091 0.727,-0.091c0.219,0 0.417,0.022 0.596,0.065c0.179,0.044 0.342,0.108 0.49,0.193c0.147,0.085 0.282,0.189 0.403,0.312c0.122,0.124 0.236,0.265 0.344,0.425c0.066,-0.108 0.164,-0.221 0.294,-0.339c0.13,-0.118 0.286,-0.225 0.466,-0.323c0.181,-0.097 0.382,-0.177 0.604,-0.239c0.223,-0.063 0.459,-0.094 0.709,-0.094c0.396,0 0.741,0.076 1.036,0.229c0.295,0.153 0.541,0.361 0.737,0.625c0.196,0.264 0.343,0.572 0.44,0.925c0.097,0.352 0.146,0.728 0.146,1.127l0,3.411c0,0.132 -0.029,0.232 -0.086,0.3c-0.057,0.067 -0.148,0.101 -0.273,0.101l-1.203,0c-0.15,0 -0.252,-0.025 -0.308,-0.075c-0.055,-0.051 -0.083,-0.149 -0.083,-0.294l0,-3.443c0,-0.149 -0.023,-0.288 -0.07,-0.417c-0.047,-0.128 -0.112,-0.24 -0.196,-0.335c-0.083,-0.096 -0.185,-0.171 -0.304,-0.224c-0.12,-0.054 -0.253,-0.081 -0.399,-0.081c-0.132,0 -0.257,0.026 -0.375,0.078c-0.118,0.052 -0.222,0.124 -0.312,0.216c-0.09,0.092 -0.162,0.203 -0.216,0.333c-0.054,0.131 -0.081,0.274 -0.081,0.43l0,3.411c0,0.132 -0.029,0.232 -0.086,0.3c-0.057,0.067 -0.148,0.101 -0.273,0.101l-0.11,0l-0.041,0l-1.052,0c-0.15,0 -0.252,-0.025 -0.308,-0.075c-0.055,-0.051 -0.083,-0.149 -0.083,-0.294l0,-3.443c0,-0.149 -0.022,-0.288 -0.065,-0.417c-0.043,-0.128 -0.106,-0.24 -0.188,-0.335c-0.081,-0.096 -0.18,-0.171 -0.296,-0.224c-0.117,-0.054 -0.248,-0.081 -0.394,-0.081c-0.125,0 -0.247,0.025 -0.367,0.075c-0.12,0.051 -0.227,0.122 -0.323,0.214c-0.095,0.092 -0.175,0.202 -0.239,0.331c-0.064,0.128 -0.102,0.27 -0.112,0.427l0,3.437c0,0.059 -0.011,0.118 -0.034,0.177c-0.023,0.059 -0.056,0.104 -0.102,0.135c-0.045,0.028 -0.087,0.047 -0.127,0.058c-0.04,0.01 -0.086,0.015 -0.138,0.015l-1.177,0c-0.149,0 -0.257,-0.036 -0.323,-0.109c-0.066,-0.073 -0.099,-0.17 -0.099,-0.292l0,-5.827c0,-0.066 0.015,-0.127 0.044,-0.183c0.03,-0.055 0.071,-0.099 0.123,-0.13l-0.032,0.016Z" style="fill:#434343;fill-rule:nonzero;"/><path d="M37.704,15.757c0,0.059 -0.01,0.115 -0.031,0.169c-0.021,0.054 -0.055,0.096 -0.104,0.128c-0.038,0.038 -0.083,0.062 -0.135,0.073c-0.053,0.01 -0.098,0.015 -0.136,0.015l-1.026,0c-0.073,0 -0.132,-0.009 -0.177,-0.028c-0.045,-0.019 -0.081,-0.046 -0.109,-0.081c-0.028,-0.035 -0.051,-0.077 -0.071,-0.128c-0.019,-0.05 -0.039,-0.105 -0.059,-0.164l-0.068,-0.234c-0.094,0.094 -0.201,0.186 -0.32,0.276c-0.12,0.09 -0.252,0.171 -0.396,0.242c-0.144,0.071 -0.299,0.129 -0.464,0.172c-0.165,0.043 -0.336,0.065 -0.513,0.065c-0.316,0 -0.619,-0.04 -0.909,-0.12c-0.289,-0.08 -0.56,-0.193 -0.812,-0.341c-0.252,-0.147 -0.48,-0.324 -0.685,-0.531c-0.205,-0.207 -0.381,-0.437 -0.528,-0.69c-0.148,-0.254 -0.262,-0.527 -0.341,-0.82c-0.08,-0.294 -0.12,-0.6 -0.12,-0.92c0,-0.482 0.088,-0.931 0.265,-1.346c0.177,-0.415 0.419,-0.776 0.724,-1.083c0.306,-0.307 0.665,-0.549 1.078,-0.724c0.413,-0.175 0.856,-0.263 1.328,-0.263c0.216,0 0.416,0.024 0.602,0.073c0.186,0.049 0.356,0.115 0.51,0.198c0.155,0.083 0.294,0.183 0.419,0.299c0.125,0.117 0.235,0.243 0.328,0.378l0.152,-0.474c0.034,-0.087 0.063,-0.157 0.085,-0.211c0.023,-0.054 0.047,-0.094 0.073,-0.12c0.026,-0.026 0.059,-0.043 0.097,-0.052c0.038,-0.008 0.092,-0.013 0.161,-0.013l0.776,0c0.038,0 0.083,0.005 0.136,0.016c0.052,0.01 0.097,0.035 0.135,0.073c0.049,0.038 0.083,0.081 0.104,0.13c0.021,0.049 0.031,0.104 0.031,0.167l0,5.869Zm-5.129,-2.917c0,0.23 0.035,0.444 0.106,0.644c0.072,0.199 0.173,0.372 0.305,0.518c0.132,0.146 0.291,0.261 0.477,0.346c0.185,0.085 0.391,0.128 0.617,0.128c0.232,0 0.448,-0.043 0.648,-0.128c0.2,-0.085 0.373,-0.2 0.521,-0.346c0.147,-0.146 0.263,-0.319 0.346,-0.518c0.083,-0.2 0.125,-0.414 0.125,-0.644c0,-0.222 -0.042,-0.434 -0.125,-0.635c-0.083,-0.201 -0.199,-0.378 -0.346,-0.531c-0.148,-0.153 -0.321,-0.274 -0.521,-0.362c-0.2,-0.089 -0.416,-0.133 -0.648,-0.133c-0.226,0 -0.432,0.044 -0.617,0.133c-0.186,0.088 -0.345,0.209 -0.477,0.362c-0.132,0.153 -0.233,0.33 -0.305,0.531c-0.071,0.201 -0.106,0.413 -0.106,0.635Z" style="fill:#434343;fill-rule:nonzero;"/><path d="M38.694,9.914c0,-0.066 0.012,-0.124 0.036,-0.172c0.025,-0.049 0.057,-0.089 0.097,-0.12c0.04,-0.031 0.085,-0.055 0.135,-0.07c0.05,-0.016 0.1,-0.024 0.148,-0.024l0.787,0c0.087,0 0.156,0.026 0.208,0.078c0.052,0.052 0.097,0.118 0.133,0.198c0.036,0.08 0.069,0.169 0.096,0.266c0.028,0.097 0.061,0.191 0.099,0.281c0.104,-0.114 0.208,-0.227 0.31,-0.338c0.103,-0.112 0.213,-0.21 0.331,-0.297c0.118,-0.087 0.247,-0.157 0.388,-0.211c0.14,-0.054 0.301,-0.081 0.482,-0.081c0.187,0 0.355,0.014 0.502,0.042c0.148,0.028 0.287,0.068 0.419,0.122c0.132,0.054 0.263,0.123 0.394,0.206c0.13,0.083 0.271,0.18 0.424,0.291c0.149,0.087 0.224,0.19 0.224,0.308c0,0.076 -0.03,0.165 -0.089,0.265l-0.473,0.808c-0.094,0.135 -0.211,0.203 -0.349,0.203c-0.07,0 -0.148,-0.019 -0.235,-0.058c-0.149,-0.145 -0.301,-0.254 -0.455,-0.325c-0.155,-0.071 -0.331,-0.107 -0.529,-0.107c-0.135,0 -0.254,0.019 -0.357,0.057c-0.102,0.039 -0.195,0.092 -0.278,0.162c-0.084,0.069 -0.162,0.153 -0.235,0.25c-0.073,0.097 -0.146,0.205 -0.219,0.323l0,3.77c0,0.132 -0.032,0.232 -0.096,0.3c-0.064,0.067 -0.171,0.101 -0.32,0.101l-1.172,0c-0.271,0 -0.406,-0.133 -0.406,-0.401l0,-5.827Z" style="fill:#434343;fill-rule:nonzero;"/><path d="M44.428,7.961c0,-0.059 0.001,-0.113 0.005,-0.162c0.003,-0.048 0.018,-0.09 0.044,-0.125c0.026,-0.034 0.067,-0.061 0.123,-0.08c0.055,-0.02 0.133,-0.029 0.234,-0.029l1.245,0c0.066,0 0.12,0.011 0.164,0.034c0.043,0.022 0.078,0.051 0.104,0.086c0.026,0.034 0.043,0.072 0.052,0.112c0.009,0.04 0.013,0.077 0.013,0.112l0,3.853l1.875,-2.083c0.09,-0.1 0.198,-0.151 0.323,-0.151l1.599,0c0.19,0 0.286,0.075 0.286,0.224c0,0.038 -0.006,0.07 -0.018,0.094c-0.012,0.024 -0.038,0.059 -0.076,0.104l-2.14,2.26l2.692,3.458l-0.01,0c0.045,0.045 0.077,0.091 0.096,0.138c0.019,0.047 0.029,0.09 0.029,0.128c0,0.08 -0.022,0.134 -0.065,0.164c-0.044,0.03 -0.109,0.044 -0.196,0.044l-1.76,0c-0.059,0 -0.114,-0.022 -0.167,-0.067c-0.052,-0.046 -0.109,-0.113 -0.171,-0.204l-1.703,-2.411l-0.578,0.599l0,1.682c0,0.028 -0.005,0.064 -0.013,0.11c-0.009,0.045 -0.026,0.089 -0.053,0.132c-0.026,0.044 -0.061,0.081 -0.106,0.112c-0.045,0.032 -0.104,0.047 -0.177,0.047l-1.308,0c-0.062,0 -0.116,-0.016 -0.161,-0.049c-0.045,-0.033 -0.081,-0.071 -0.107,-0.112c-0.026,-0.042 -0.045,-0.081 -0.057,-0.117c-0.012,-0.037 -0.018,-0.059 -0.018,-0.065l0,-7.838Z" style="fill:#434343;fill-rule:nonzero;"/><path d="M56.38,15.741c-0.031,0.066 -0.057,0.124 -0.078,0.175c-0.021,0.05 -0.045,0.092 -0.071,0.125c-0.026,0.033 -0.058,0.058 -0.096,0.075c-0.038,0.018 -0.09,0.026 -0.156,0.026l-1.031,0c-0.278,0 -0.417,-0.133 -0.417,-0.401l0,-7.78c0,-0.059 0.011,-0.113 0.034,-0.162c0.022,-0.048 0.052,-0.09 0.088,-0.125c0.037,-0.034 0.079,-0.061 0.125,-0.08c0.047,-0.02 0.093,-0.029 0.138,-0.029l1.183,0c0.132,0 0.236,0.038 0.312,0.114c0.076,0.077 0.115,0.171 0.115,0.282l0,2.166c0.097,-0.104 0.201,-0.199 0.312,-0.286c0.111,-0.087 0.232,-0.161 0.362,-0.222c0.13,-0.06 0.274,-0.108 0.43,-0.143c0.156,-0.035 0.33,-0.052 0.521,-0.052c0.472,0 0.907,0.088 1.304,0.263c0.398,0.175 0.74,0.417 1.026,0.724c0.287,0.307 0.51,0.668 0.672,1.083c0.161,0.415 0.242,0.864 0.242,1.346c0,0.48 -0.081,0.927 -0.242,1.344c-0.162,0.417 -0.385,0.779 -0.672,1.086c-0.286,0.307 -0.628,0.549 -1.026,0.726c-0.397,0.178 -0.832,0.266 -1.304,0.266c-0.178,0 -0.347,-0.023 -0.508,-0.068c-0.162,-0.045 -0.314,-0.104 -0.456,-0.177c-0.142,-0.073 -0.273,-0.155 -0.393,-0.247c-0.12,-0.092 -0.227,-0.185 -0.32,-0.279l-0.094,0.25Zm3.14,-2.901c0,-0.222 -0.035,-0.434 -0.107,-0.635c-0.071,-0.201 -0.172,-0.378 -0.304,-0.531c-0.132,-0.153 -0.29,-0.274 -0.474,-0.362c-0.184,-0.089 -0.391,-0.133 -0.62,-0.133c-0.229,0 -0.443,0.044 -0.643,0.133c-0.2,0.088 -0.372,0.209 -0.518,0.362c-0.146,0.153 -0.261,0.33 -0.347,0.531c-0.085,0.201 -0.127,0.413 -0.127,0.635l0,0.073c0.01,0.219 0.06,0.424 0.148,0.615c0.089,0.191 0.206,0.357 0.352,0.497c0.146,0.141 0.316,0.251 0.51,0.331c0.195,0.08 0.403,0.12 0.625,0.12c0.229,0 0.436,-0.043 0.62,-0.128c0.184,-0.085 0.342,-0.2 0.474,-0.346c0.132,-0.146 0.233,-0.319 0.304,-0.518c0.072,-0.2 0.107,-0.414 0.107,-0.644Z" style="fill:#434343;fill-rule:nonzero;"/><path d="M67.728,15.351c-0.306,0.281 -0.649,0.5 -1.031,0.658c-0.382,0.158 -0.787,0.237 -1.214,0.237c-0.475,0 -0.925,-0.086 -1.349,-0.26c-0.423,-0.174 -0.795,-0.414 -1.114,-0.721c-0.319,-0.308 -0.573,-0.669 -0.76,-1.086c-0.188,-0.417 -0.282,-0.87 -0.282,-1.359c0,-0.306 0.038,-0.602 0.112,-0.888c0.075,-0.287 0.181,-0.555 0.318,-0.805c0.137,-0.25 0.304,-0.48 0.5,-0.69c0.196,-0.21 0.416,-0.39 0.659,-0.539c0.243,-0.149 0.507,-0.266 0.791,-0.349c0.285,-0.083 0.585,-0.125 0.901,-0.125c0.289,0 0.568,0.038 0.839,0.115c0.271,0.076 0.525,0.184 0.763,0.323c0.238,0.138 0.455,0.305 0.653,0.5c0.198,0.194 0.368,0.407 0.511,0.637c0.142,0.231 0.252,0.478 0.33,0.74c0.079,0.262 0.118,0.532 0.118,0.81c0,0.18 -0.003,0.328 -0.008,0.442c-0.005,0.115 -0.032,0.206 -0.081,0.274c-0.049,0.068 -0.129,0.114 -0.242,0.141c-0.113,0.026 -0.279,0.039 -0.497,0.039l-3.75,0c0.035,0.222 0.105,0.408 0.211,0.557c0.106,0.149 0.228,0.268 0.367,0.357c0.139,0.088 0.286,0.151 0.443,0.19c0.156,0.038 0.303,0.057 0.442,0.057c0.125,0 0.254,-0.013 0.386,-0.039c0.132,-0.026 0.259,-0.061 0.382,-0.104c0.124,-0.044 0.237,-0.094 0.339,-0.151c0.102,-0.058 0.185,-0.117 0.247,-0.18c0.056,-0.045 0.104,-0.079 0.144,-0.102c0.039,-0.022 0.082,-0.033 0.127,-0.033c0.045,0 0.091,0.015 0.138,0.046c0.047,0.032 0.1,0.077 0.159,0.136l0.552,0.625c0.038,0.045 0.063,0.086 0.073,0.122c0.01,0.037 0.016,0.074 0.016,0.112c0,0.07 -0.02,0.13 -0.058,0.18c-0.038,0.05 -0.083,0.094 -0.135,0.133Zm-2.505,-4.339c-0.136,0 -0.267,0.027 -0.393,0.081c-0.127,0.054 -0.246,0.126 -0.357,0.216c-0.111,0.091 -0.211,0.193 -0.3,0.308c-0.088,0.114 -0.16,0.23 -0.216,0.349l2.662,0c-0.073,-0.136 -0.152,-0.261 -0.237,-0.375c-0.085,-0.115 -0.183,-0.216 -0.292,-0.302c-0.109,-0.087 -0.234,-0.155 -0.375,-0.204c-0.141,-0.048 -0.305,-0.073 -0.492,-0.073Z" style="fill:#434343;fill-rule:nonzero;"/><path d="M69.301,9.914c0,-0.066 0.012,-0.124 0.036,-0.172c0.024,-0.049 0.057,-0.089 0.096,-0.12c0.04,-0.031 0.086,-0.055 0.136,-0.07c0.05,-0.016 0.1,-0.024 0.148,-0.024l0.787,0c0.086,0 0.156,0.026 0.208,0.078c0.052,0.052 0.096,0.118 0.133,0.198c0.036,0.08 0.068,0.169 0.096,0.266c0.028,0.097 0.061,0.191 0.099,0.281c0.104,-0.114 0.208,-0.227 0.31,-0.338c0.102,-0.112 0.213,-0.21 0.331,-0.297c0.118,-0.087 0.247,-0.157 0.388,-0.211c0.14,-0.054 0.301,-0.081 0.481,-0.081c0.188,0 0.355,0.014 0.503,0.042c0.148,0.028 0.287,0.068 0.419,0.122c0.132,0.054 0.263,0.123 0.393,0.206c0.131,0.083 0.272,0.18 0.425,0.291c0.149,0.087 0.224,0.19 0.224,0.308c0,0.076 -0.03,0.165 -0.089,0.265l-0.474,0.808c-0.093,0.135 -0.21,0.203 -0.349,0.203c-0.069,0 -0.147,-0.019 -0.234,-0.058c-0.149,-0.145 -0.301,-0.254 -0.456,-0.325c-0.154,-0.071 -0.33,-0.107 -0.528,-0.107c-0.136,0 -0.255,0.019 -0.357,0.057c-0.102,0.039 -0.195,0.092 -0.279,0.162c-0.083,0.069 -0.161,0.153 -0.234,0.25c-0.073,0.097 -0.146,0.205 -0.219,0.323l0,3.77c0,0.132 -0.032,0.232 -0.096,0.3c-0.064,0.067 -0.171,0.101 -0.32,0.101l-1.172,0c-0.271,0 -0.406,-0.133 -0.406,-0.401l0,-5.827Z" style="fill:#434343;fill-rule:nonzero;"/><path d="M75.035,9.914c0,-0.066 0.012,-0.124 0.036,-0.172c0.024,-0.049 0.056,-0.089 0.096,-0.12c0.04,-0.031 0.085,-0.055 0.136,-0.07c0.05,-0.016 0.1,-0.024 0.148,-0.024l0.787,0c0.086,0 0.156,0.026 0.208,0.078c0.052,0.052 0.096,0.118 0.133,0.198c0.036,0.08 0.068,0.169 0.096,0.266c0.028,0.097 0.061,0.191 0.099,0.281c0.104,-0.114 0.207,-0.227 0.31,-0.338c0.102,-0.112 0.213,-0.21 0.331,-0.297c0.118,-0.087 0.247,-0.157 0.388,-0.211c0.14,-0.054 0.301,-0.081 0.481,-0.081c0.188,0 0.355,0.014 0.503,0.042c0.147,0.028 0.287,0.068 0.419,0.122c0.132,0.054 0.263,0.123 0.393,0.206c0.13,0.083 0.272,0.18 0.425,0.291c0.149,0.087 0.224,0.19 0.224,0.308c0,0.076 -0.03,0.165 -0.089,0.265l-0.474,0.808c-0.094,0.135 -0.21,0.203 -0.349,0.203c-0.069,0 -0.147,-0.019 -0.234,-0.058c-0.149,-0.145 -0.301,-0.254 -0.456,-0.325c-0.154,-0.071 -0.33,-0.107 -0.528,-0.107c-0.136,0 -0.255,0.019 -0.357,0.057c-0.103,0.039 -0.195,0.092 -0.279,0.162c-0.083,0.069 -0.161,0.153 -0.234,0.25c-0.073,0.097 -0.146,0.205 -0.219,0.323l0,3.77c0,0.132 -0.032,0.232 -0.096,0.3c-0.064,0.067 -0.171,0.101 -0.32,0.101l-1.172,0c-0.271,0 -0.406,-0.133 -0.406,-0.401l0,-5.827Z" style="fill:#434343;fill-rule:nonzero;"/><path d="M80.367,10.028c-0.055,-0.139 -0.056,-0.258 -0.002,-0.357c0.054,-0.098 0.173,-0.148 0.357,-0.148l1.286,0c0.087,0 0.158,0.027 0.213,0.081c0.056,0.054 0.098,0.12 0.125,0.2l1.474,4.193l1.443,-4.193c0.038,-0.111 0.087,-0.185 0.146,-0.224c0.059,-0.038 0.14,-0.057 0.244,-0.057l1.339,0c0.097,0 0.173,0.013 0.229,0.039c0.056,0.026 0.095,0.061 0.117,0.104c0.023,0.044 0.031,0.092 0.024,0.146c-0.007,0.054 -0.021,0.107 -0.042,0.159c-0.132,0.326 -0.276,0.683 -0.432,1.07c-0.157,0.387 -0.319,0.79 -0.487,1.208c-0.169,0.419 -0.34,0.844 -0.513,1.276c-0.174,0.433 -0.343,0.857 -0.508,1.274c-0.165,0.416 -0.324,0.816 -0.476,1.2c-0.153,0.384 -0.293,0.736 -0.42,1.057c-0.126,0.321 -0.237,0.604 -0.33,0.847c-0.094,0.243 -0.165,0.43 -0.214,0.562l0.016,-0.026c-0.025,0.094 -0.068,0.169 -0.131,0.226c-0.062,0.058 -0.138,0.086 -0.229,0.086l-1.203,0c-0.156,0 -0.263,-0.03 -0.32,-0.091c-0.057,-0.06 -0.086,-0.15 -0.086,-0.268c0,-0.045 0.006,-0.08 0.018,-0.104c0.012,-0.024 0.022,-0.04 0.029,-0.047l0.818,-2.125l-2.485,-6.088Z" style="fill:#434343;fill-rule:nonzero;"/></g></g></svg>
